<svg width="174" height="31" viewBox="0 0 174 31" fill="none" xmlns="http://www.w3.org/2000/svg">
<path d="M0 9.20897C-3.37816e-07 2.13046 7.54487 -2.29361 13.5808 1.24565L24.3096 7.53667C30.3455 11.0759 30.3455 19.9241 24.3096 23.4633L13.5808 29.7543C7.54487 33.2936 9.38284e-07 28.8695 6.00468e-07 21.791L0 9.20897Z" fill="url(#paint0_linear)"/>
<path d="M13.0992 22.8636C11.6385 22.8636 10.3238 22.5534 9.1553 21.933C8.00002 21.2992 7.09041 20.4226 6.42647 19.3032C5.76252 18.1838 5.43054 16.9161 5.43054 15.5C5.43054 14.084 5.76252 12.8162 6.42647 11.6969C7.09041 10.5775 8.00002 9.70764 9.1553 9.08726C10.3238 8.4534 11.6385 8.13647 13.0992 8.13647C14.3739 8.13647 15.5226 8.36574 16.545 8.82428C17.5675 9.28282 18.4174 9.94365 19.0946 10.8068L16.5849 13.1129C15.6819 12.0071 14.5864 11.4541 13.2983 11.4541C12.5414 11.4541 11.8642 11.6227 11.2667 11.9599C10.6824 12.297 10.2243 12.7758 9.89228 13.3962C9.57358 14.0031 9.41424 14.7043 9.41424 15.5C9.41424 16.2957 9.57358 17.0038 9.89228 17.6241C10.2243 18.231 10.6824 18.7031 11.2667 19.0402C11.8642 19.3774 12.5414 19.546 13.2983 19.546C14.5864 19.546 15.6819 18.993 16.5849 17.8871L19.0946 20.1933C18.4174 21.0564 17.5675 21.7173 16.545 22.1758C15.5226 22.6343 14.3739 22.8636 13.0992 22.8636Z" fill="white"/>
<path d="M51.3034 13.2751C50.8921 9.80374 48.3089 7.80753 44.8888 7.80753C40.9851 7.80753 38.0051 10.611 38.0051 15.5282C38.0051 20.4306 40.9346 23.2488 44.8888 23.2488C48.6769 23.2488 50.9642 20.6875 51.3034 17.9207L48.143 17.906C47.8471 19.5133 46.606 20.438 44.9393 20.438C42.6952 20.438 41.1727 18.7427 41.1727 15.5282C41.1727 12.4018 42.6736 10.6184 44.9609 10.6184C46.671 10.6184 47.9048 11.6238 48.143 13.2751H51.3034Z" fill="white"/>
<path d="M58.4937 23.2635C61.8561 23.2635 63.9486 20.9224 63.9486 17.451C63.9486 13.9576 61.8561 11.6238 58.4937 11.6238C55.1312 11.6238 53.0387 13.9576 53.0387 17.451C53.0387 20.9224 55.1312 23.2635 58.4937 23.2635ZM58.5081 20.8416C56.9567 20.8416 56.163 19.3958 56.163 17.429C56.163 15.4621 56.9567 14.009 58.5081 14.009C60.0306 14.009 60.8243 15.4621 60.8243 17.429C60.8243 19.3958 60.0306 20.8416 58.5081 20.8416Z" fill="white"/>
<path d="M69.0211 16.5263C69.0283 15.0732 69.8798 14.2218 71.1208 14.2218C72.3547 14.2218 73.0979 15.0438 73.0907 16.4235V23.0433H76.1645V15.8658C76.1645 13.2384 74.6492 11.6238 72.3403 11.6238C70.6951 11.6238 69.5046 12.4458 69.0067 13.7595H68.8768V11.7706H65.9473V23.0433H69.0211V16.5263Z" fill="white"/>
<path d="M88.5229 11.7706H85.2687L82.9742 19.8362H82.8587L80.557 11.7706H77.31L81.1847 23.0433H84.6482L88.5229 11.7706Z" fill="white"/>
<path d="M94.7698 23.2635C97.5117 23.2635 99.3589 21.9058 99.7918 19.8142L96.9489 19.6233C96.6386 20.482 95.8449 20.9297 94.8203 20.9297C93.2834 20.9297 92.3093 19.8949 92.3093 18.2143V18.2069H99.8567V17.3483C99.8567 13.5173 97.5766 11.6238 94.6471 11.6238C91.3857 11.6238 89.2715 13.9796 89.2715 17.4583C89.2715 21.0324 91.3568 23.2635 94.7698 23.2635ZM92.3093 16.2694C92.3742 14.9851 93.3339 13.9576 94.6976 13.9576C96.0325 13.9576 96.9561 14.9264 96.9633 16.2694H92.3093Z" fill="white"/>
<path d="M101.863 23.0433H104.936V16.6657C104.936 15.2786 105.932 14.3246 107.289 14.3246C107.714 14.3246 108.299 14.398 108.588 14.4934V11.7192C108.313 11.6532 107.931 11.6091 107.621 11.6091C106.38 11.6091 105.362 12.343 104.958 13.7375H104.843V11.7706H101.863V23.0433Z" fill="white"/>
<path d="M119.398 14.9851C119.124 12.9081 117.479 11.6238 114.679 11.6238C111.844 11.6238 109.975 12.9595 109.982 15.1319C109.975 16.8198 111.021 17.9134 113.186 18.3537L115.105 18.7427C116.072 18.9408 116.512 19.3004 116.526 19.8655C116.512 20.5334 115.798 21.0104 114.723 21.0104C113.626 21.0104 112.897 20.5334 112.709 19.616L109.686 19.7775C109.975 21.9351 111.779 23.2635 114.715 23.2635C117.587 23.2635 119.644 21.7737 119.651 19.55C119.644 17.9207 118.597 16.9446 116.447 16.4969L114.441 16.0859C113.409 15.8584 113.027 15.4988 113.034 14.9557C113.027 14.2805 113.777 13.8402 114.73 13.8402C115.798 13.8402 116.433 14.4347 116.584 15.1612L119.398 14.9851Z" fill="white"/>
<path d="M121.586 23.0433H124.66V11.7706H121.586V23.0433ZM123.13 10.3175C124.047 10.3175 124.797 9.60559 124.797 8.73225C124.797 7.86624 124.047 7.15436 123.13 7.15436C122.221 7.15436 121.471 7.86624 121.471 8.73225C121.471 9.60559 122.221 10.3175 123.13 10.3175Z" fill="white"/>
<path d="M132.13 23.2635C135.492 23.2635 137.585 20.9224 137.585 17.451C137.585 13.9576 135.492 11.6238 132.13 11.6238C128.768 11.6238 126.675 13.9576 126.675 17.451C126.675 20.9224 128.768 23.2635 132.13 23.2635ZM132.144 20.8416C130.593 20.8416 129.799 19.3958 129.799 17.429C129.799 15.4621 130.593 14.009 132.144 14.009C133.667 14.009 134.461 15.4621 134.461 17.429C134.461 19.3958 133.667 20.8416 132.144 20.8416Z" fill="white"/>
<path d="M142.658 16.5263C142.665 15.0732 143.516 14.2218 144.757 14.2218C145.991 14.2218 146.734 15.0438 146.727 16.4235V23.0433H149.801V15.8658C149.801 13.2384 148.286 11.6238 145.977 11.6238C144.332 11.6238 143.141 12.4458 142.643 13.7595H142.513V11.7706H139.584V23.0433H142.658V16.5263Z" fill="white"/>
<path d="M154.02 23.2341C154.944 23.2341 155.745 22.4489 155.752 21.4728C155.745 20.5114 154.944 19.7261 154.02 19.7261C153.068 19.7261 152.281 20.5114 152.288 21.4728C152.281 22.4489 153.068 23.2341 154.02 23.2341Z" fill="white"/>
<path d="M161.436 23.2562C163.074 23.2562 164.135 22.5296 164.676 21.4801H164.762V23.0433H167.677V15.4401C167.677 12.754 165.441 11.6238 162.973 11.6238C160.318 11.6238 158.571 12.9155 158.146 14.9704L160.989 15.2053C161.198 14.4567 161.854 13.9063 162.958 13.9063C164.005 13.9063 164.604 14.442 164.604 15.3667V15.4108C164.604 16.1373 163.846 16.2327 161.919 16.4235C159.726 16.629 157.756 17.3776 157.756 19.8949C157.756 22.126 159.322 23.2562 161.436 23.2562ZM162.316 21.0985C161.371 21.0985 160.693 20.6508 160.693 19.7921C160.693 18.9115 161.407 18.4785 162.489 18.3243C163.16 18.2289 164.257 18.0675 164.625 17.8179V19.0142C164.625 20.1958 163.666 21.0985 162.316 21.0985Z" fill="white"/>
<path d="M170.062 23.0433H173.136V11.7706H170.062V23.0433ZM171.606 10.3175C172.523 10.3175 173.273 9.60559 173.273 8.73225C173.273 7.86624 172.523 7.15436 171.606 7.15436C170.697 7.15436 169.947 7.86624 169.947 8.73225C169.947 9.60559 170.697 10.3175 171.606 10.3175Z" fill="white"/>
<defs>
<linearGradient id="paint0_linear" x1="-0.0493018" y1="30.9986" x2="24.6088" y2="6.71965" gradientUnits="userSpaceOnUse">
<stop stop-color="#7F00FF"/>
<stop offset="1" stop-color="#E100FF"/>
</linearGradient>
</defs>
</svg>
